# xmcd CD database file
#
# Track frame offsets:
#	150
#	24503
#	74377
#	106328
#	150363
#	183068
#
# Disc length: 2665 seconds
#
# Revision: 0
# Processed by: cddbd v1.5PL3 Copyright (c) Steve Scherf et al.
# Submitted via: CDex 1.51
#
DISCID=3d0a6706
DTITLE=Daniel Thouin - Mile End St-Viateur
DYEAR=2004
DGENRE=Jazz
TTITLE0=Hazy Listening
TTITLE1=Half Dub 2
TTITLE2=Rituel
TTITLE3=PSG
TTITLE4=Baculis
TTITLE5=Directions 2
EXTD=YEAR: 2004
EXTT0=
EXTT1=
EXTT2=
EXTT3=
EXTT4=
EXTT5=
PLAYORDER=
